<svg xmlns="http://www.w3.org/2000/svg" width="1200" height="600" viewBox="0 0 1200 600">
<rect width="1200" height="600" fill="#f1f7f2"/>
<rect x="0" y="420" width="1200" height="180" fill="#dfeee1"/>
<rect x="220" y="260" width="760" height="190" rx="40" fill="#ffffff" stroke="#3e7a4a" stroke-width="6"/><circle cx="320" cy="220" r="34" fill="#cfe6d2" stroke="#2f5e37" stroke-width="4"/><rect x="292" y="254" width="56" height="90" rx="20" fill="#cfe6d2" stroke="#2f5e37" stroke-width="4"/><circle cx="460" cy="200" r="34" fill="#cfe6d2" stroke="#2f5e37" stroke-width="4"/><rect x="432" y="234" width="56" height="90" rx="20" fill="#cfe6d2" stroke="#2f5e37" stroke-width="4"/><circle cx="600" cy="200" r="34" fill="#cfe6d2" stroke="#2f5e37" stroke-width="4"/><rect x="572" y="234" width="56" height="90" rx="20" fill="#cfe6d2" stroke="#2f5e37" stroke-width="4"/><circle cx="740" cy="200" r="34" fill="#cfe6d2" stroke="#2f5e37" stroke-width="4"/><rect x="712" y="234" width="56" height="90" rx="20" fill="#cfe6d2" stroke="#2f5e37" stroke-width="4"/><circle cx="880" cy="220" r="34" fill="#cfe6d2" stroke="#2f5e37" stroke-width="4"/><rect x="852" y="254" width="56" height="90" rx="20" fill="#cfe6d2" stroke="#2f5e37" stroke-width="4"/><rect x="520" y="80" width="320" height="120" rx="14" fill="#ffffff" stroke="#2f5e37" stroke-width="6"/><rect x="545" y="110" width="270" height="20" fill="#2f5e37" opacity="0.2"/><rect x="545" y="145" width="220" height="20" fill="#2f5e37" opacity="0.2"/></svg>