<svg xmlns="http://www.w3.org/2000/svg" width="1200" height="600" viewBox="0 0 1200 600">
<rect width="1200" height="600" fill="#eef2fb"/>
<rect x="0" y="420" width="1200" height="180" fill="#dfe7f7"/>
<rect x="140" y="90" width="920" height="70" rx="12" fill="#ffffff" stroke="#5d78b5" stroke-width="5"/>
<rect x="170" y="115" width="160" height="20" fill="#5d78b5" opacity="0.25"/><rect x="360" y="115" width="160" height="20" fill="#5d78b5" opacity="0.25"/><rect x="550" y="115" width="160" height="20" fill="#5d78b5" opacity="0.25"/><path d="M980 115 l60 20 -60 20 10-18 -60 0 0-4 60 0z" fill="#5d78b5" opacity="0.7"/><circle cx="260" cy="300" r="26" fill="#c9d6f0" stroke="#4c67a6" stroke-width="3"/><rect x="240" y="326" width="40" height="90" rx="16" fill="#c9d6f0" stroke="#4c67a6" stroke-width="3"/><circle cx="360" cy="300" r="26" fill="#c9d6f0" stroke="#4c67a6" stroke-width="3"/><rect x="340" y="326" width="40" height="90" rx="16" fill="#c9d6f0" stroke="#4c67a6" stroke-width="3"/><circle cx="460" cy="300" r="26" fill="#c9d6f0" stroke="#4c67a6" stroke-width="3"/><rect x="440" y="326" width="40" height="90" rx="16" fill="#c9d6f0" stroke="#4c67a6" stroke-width="3"/><circle cx="560" cy="300" r="26" fill="#c9d6f0" stroke="#4c67a6" stroke-width="3"/><rect x="540" y="326" width="40" height="90" rx="16" fill="#c9d6f0" stroke="#4c67a6" stroke-width="3"/><circle cx="660" cy="300" r="26" fill="#c9d6f0" stroke="#4c67a6" stroke-width="3"/><rect x="640" y="326" width="40" height="90" rx="16" fill="#c9d6f0" stroke="#4c67a6" stroke-width="3"/><rect x="220" y="400" width="520" height="35" rx="12" fill="#ffffff" stroke="#4c67a6" stroke-width="4"/></svg>