<svg xmlns="http://www.w3.org/2000/svg" width="1200" height="600" viewBox="0 0 1200 600">
<rect width="1200" height="600" fill="#f4f1fb"/>
<rect x="0" y="420" width="1200" height="180" fill="#e7e0f7"/>
<rect x="160" y="130" width="220" height="370" fill="#ffffff" stroke="#6d5aa5" stroke-width="6"/><line x1="160" y1="170" x2="380" y2="170" stroke="#6d5aa5" stroke-width="5"/><line x1="160" y1="260" x2="380" y2="260" stroke="#6d5aa5" stroke-width="5"/><line x1="160" y1="350" x2="380" y2="350" stroke="#6d5aa5" stroke-width="5"/><line x1="160" y1="440" x2="380" y2="440" stroke="#6d5aa5" stroke-width="5"/><rect x="440" y="130" width="220" height="370" fill="#ffffff" stroke="#6d5aa5" stroke-width="6"/><line x1="440" y1="170" x2="660" y2="170" stroke="#6d5aa5" stroke-width="5"/><line x1="440" y1="260" x2="660" y2="260" stroke="#6d5aa5" stroke-width="5"/><line x1="440" y1="350" x2="660" y2="350" stroke="#6d5aa5" stroke-width="5"/><line x1="440" y1="440" x2="660" y2="440" stroke="#6d5aa5" stroke-width="5"/><rect x="720" y="130" width="220" height="370" fill="#ffffff" stroke="#6d5aa5" stroke-width="6"/><line x1="720" y1="170" x2="940" y2="170" stroke="#6d5aa5" stroke-width="5"/><line x1="720" y1="260" x2="940" y2="260" stroke="#6d5aa5" stroke-width="5"/><line x1="720" y1="350" x2="940" y2="350" stroke="#6d5aa5" stroke-width="5"/><line x1="720" y1="440" x2="940" y2="440" stroke="#6d5aa5" stroke-width="5"/><rect x="190" y="385" width="120" height="60" fill="#d7c9aa" stroke="#6d5aa5" stroke-width="4"/><line x1="200" y1="415" x2="300" y2="415" stroke="#6d5aa5" stroke-width="3" opacity="0.4"/><rect x="190" y="335" width="120" height="60" fill="#d7c9aa" stroke="#6d5aa5" stroke-width="4"/><line x1="200" y1="365" x2="300" y2="365" stroke="#6d5aa5" stroke-width="3" opacity="0.4"/><rect x="190" y="285" width="120" height="60" fill="#d7c9aa" stroke="#6d5aa5" stroke-width="4"/><line x1="200" y1="315" x2="300" y2="315" stroke="#6d5aa5" stroke-width="3" opacity="0.4"/><rect x="470" y="385" width="120" height="60" fill="#d7c9aa" stroke="#6d5aa5" stroke-width="4"/><line x1="480" y1="415" x2="580" y2="415" stroke="#6d5aa5" stroke-width="3" opacity="0.4"/><rect x="470" y="335" width="120" height="60" fill="#d7c9aa" stroke="#6d5aa5" stroke-width="4"/><line x1="480" y1="365" x2="580" y2="365" stroke="#6d5aa5" stroke-width="3" opacity="0.4"/><rect x="750" y="385" width="120" height="60" fill="#d7c9aa" stroke="#6d5aa5" stroke-width="4"/><line x1="760" y1="415" x2="860" y2="415" stroke="#6d5aa5" stroke-width="3" opacity="0.4"/><circle cx="980" cy="250" r="38" fill="#d7d0f3" stroke="#4f3f84" stroke-width="4"/><rect x="945" y="288" width="70" height="170" rx="28" fill="#d7d0f3" stroke="#4f3f84" stroke-width="4"/><path d="M955 340 C900 360, 860 380, 820 395" stroke="#4f3f84" stroke-width="12" fill="none" stroke-linecap="round"/></svg>