<svg xmlns="http://www.w3.org/2000/svg" width="1200" height="600" viewBox="0 0 1200 600">
<rect width="1200" height="600" fill="#fbf4e8"/>
<rect x="0" y="420" width="1200" height="180" fill="#f3e1c7"/>
<ellipse cx="420" cy="360" rx="240" ry="90" fill="#fff" stroke="#b07a3a" stroke-width="5"/>
<circle cx="330" cy="340" r="42" fill="#ffffff" stroke="#b07a3a" stroke-width="4"/>
<circle cx="330" cy="340" r="10" fill="#b07a3a" opacity="0.5"/>
<circle cx="420" cy="360" r="42" fill="#ffffff" stroke="#b07a3a" stroke-width="4"/>
<circle cx="420" cy="360" r="10" fill="#b07a3a" opacity="0.5"/>
<circle cx="510" cy="340" r="42" fill="#ffffff" stroke="#b07a3a" stroke-width="4"/>
<circle cx="510" cy="340" r="10" fill="#b07a3a" opacity="0.5"/>
<circle cx="760" cy="210" r="42" fill="#f1d2b3" stroke="#8a5a2b" stroke-width="4"/>
<rect x="720" y="250" width="80" height="180" rx="30" fill="#e6b07a" stroke="#8a5a2b" stroke-width="4"/>
<path d="M730 320 C620 320, 560 330, 520 340" stroke="#8a5a2b" stroke-width="12" fill="none" stroke-linecap="round"/>
<rect x="560" y="300" width="140" height="20" rx="10" fill="#c7d1e6" stroke="#8a5a2b" stroke-width="3"/>
<rect x="260" y="410" width="80" height="30" fill="#b07a3a"/>
<rect x="270" y="440" width="15" height="120" fill="#b07a3a"/>
<rect x="315" y="440" width="15" height="120" fill="#b07a3a"/>
<rect x="580" y="410" width="80" height="30" fill="#b07a3a"/>
<rect x="590" y="440" width="15" height="120" fill="#b07a3a"/>
<rect x="635" y="440" width="15" height="120" fill="#b07a3a"/>
</svg>