<svg xmlns="http://www.w3.org/2000/svg" width="1200" height="600" viewBox="0 0 1200 600">
<rect width="1200" height="600" fill="#f4f6fb"/>
<rect x="0" y="0" width="1200" height="420" fill="#f4f6fb"/>
<rect x="0" y="420" width="1200" height="180" fill="#e9edf7"/>
<rect x="180" y="320" width="560" height="80" rx="18" fill="#d6deee" stroke="#7a8fb5" stroke-width="4"/>
<rect x="220" y="400" width="60" height="160" fill="#c7d1e6" stroke="#7a8fb5" stroke-width="4"/>
<rect x="640" y="400" width="60" height="160" fill="#c7d1e6" stroke="#7a8fb5" stroke-width="4"/>
<rect x="520" y="340" width="140" height="26" fill="#ffffff" stroke="#7a8fb5" stroke-width="3"/>
<rect x="520" y="334" width="140" height="26" fill="#ffffff" stroke="#7a8fb5" stroke-width="3"/>
<rect x="520" y="328" width="140" height="26" fill="#ffffff" stroke="#7a8fb5" stroke-width="3"/>
<rect x="520" y="322" width="140" height="26" fill="#ffffff" stroke="#7a8fb5" stroke-width="3"/>
<circle cx="820" cy="250" r="45" fill="#cbd6ea" stroke="#526a96" stroke-width="4"/>
<rect x="780" y="295" width="80" height="150" rx="30" fill="#cbd6ea" stroke="#526a96" stroke-width="4"/>
<path d="M790 330 C720 340, 700 340, 660 350" stroke="#526a96" stroke-width="12" fill="none" stroke-linecap="round"/>
<path d="M850 330 C760 370, 740 370, 690 380" stroke="#526a96" stroke-width="12" fill="none" stroke-linecap="round"/>
<rect x="900" y="330" width="220" height="120" rx="14" fill="#ffffff" stroke="#7a8fb5" stroke-width="4"/>
<rect x="930" y="355" width="160" height="35" fill="#d6deee"/>
</svg>